# xmcd CD Database Entry
#
# Track frame offsets:
# 150
# 13957
# 29321
# 42206
# 57641
# 70982
# 91216
# 103490
# 117050
# 128540
# 144875
# 159691
#
# Disc length: 2319 seconds
#
# Revision: 1
# Processed by: cddbd v1.4PL0 Copyright (c) Steve Scherf et al.
# Submitted via: tcd 2.0b
#
DISCID=a4090d0c
DTITLE=Saddle Up and Boogie/Western Swith with a Zing
DYEAR=1900
DGENRE=
TTITLE0=Sadie Green
TTITLE1=All Your Fault
TTITLE2=Who Walks In
TTITLE3=Anytime
TTITLE4=There'll Be Some Changes Made
TTITLE5=Is You Is
TTITLE6=My Window Faces the South
TTITLE7=My Front Door Is Open For You
TTITLE8=Gonna Get Tight
TTITLE9=Texas In My Soul
TTITLE10=Cowgal Blues
TTITLE11=Georgia Boogie
EXTD=
EXTT0=
EXTT1=
EXTT2=
EXTT3=
EXTT4=
EXTT5=
EXTT6=
EXTT7=
EXTT8=
EXTT9=
EXTT10=
EXTT11=
PLAYORDER=
